<svg version="1.0" xmlns="http://www.w3.org/2000/svg" viewBox="50 80 250 100" color-interpolation-filters="sRGB"><rect width="100%" height="100%" fill="none" /><g fill="#fff"><g transform="translate(68.813 94.992)"><path fill="none" d="M0 0h60v60.016H0z"/><svg width="60" height="60.016"><svg xmlns="http://www.w3.org/2000/svg" viewBox="0.029 0.032 181.502 181.548"><defs><linearGradient id="a" x1="37.05" y1="144.72" x2="180.13" y2="1.64" gradientUnits="userSpaceOnUse"><stop offset="0" stop-color="#278cff"/><stop offset=".49" stop-color="#ef4bed"/><stop offset=".99" stop-color="#f98962"/></linearGradient></defs><path d="M142.44 35.36c-9.61-9.57-18.83-18.68-27.92-27.91-1.79-1.81-5.46-3.51-4.48-5.94s4.82-1.13 7.37-1.14c19.16-.1 38.33.07 57.49-.14 5-.05 6.63 1.48 6.56 6.58-.26 20.33-.09 40.66-.15 61 0 1.51.95 3.74-1.09 4.39-1.5.47-2.44-1.45-3.47-2.47-9-8.93-17.91-17.9-26.89-26.83-1.15-1.15-2.06-2.63-3.86-3.18-1.22 1.65-.61 3.53-.61 5.26q-.06 64.74 0 129.48c0 7.11 0 7.12-7.21 7.12h-59c-7 0-7.07 0-7.07-7.36v-58c0-6.61 0-6.63-6.7-6.64-19.67 0-39.33-.13-59 .09-4.77.06-6.43-1.41-6.38-6.24C.2 83.27.07 63.11.1 43c0-6.25.42-6.63 7-6.64h128.48c1.93-.07 3.96.34 6.86-1z" fill="url(#a)"/></svg></svg></g><path d="M167.837 142.408v9.1h-23.4v-9.1h5.85v-27.3h-5.85v-9.1h23.4v9.1h-5.85v27.3h5.85Zm44.85 9.1v-25.35l-9.1 16.25h-9.1l-9.1-16.25v25.35h-11.7v-45.5h12.35l13 24.05 13-24.05h12.35v45.5h-11.7Zm58.5-26v25.02q-15.21 1.63-27.95 1.63-6.37 0-9.36-2.99-2.99-2.99-2.99-9.36v-20.8q0-6.83 3.09-9.91 3.09-3.09 9.91-3.09h23.4v9.1h-20.8q-3.9 0-3.9 3.9v20.8q0 1.49.88 2.37.87.88 2.37.88 7.48 0 13.65-.33v-9.42h-8.45v-7.8h20.15Z" data-gra="path-name" /></g></svg>